# xmcd
# 
# Track frame offsets:
#     150
#     23756
#     40929
#     60173
#     83133
#     106125
#     124287
#     143665
#     165332
#     185867
#     201334
# 
# Disc length: 2931
# 
# Revision: 0
# Processed by: cddbd v1.5.2PL0 Copyright (c) Steve Scherf et al.
# Submitted via: fre:ac v1.0.31
# 
DISCID=8d0b710b
DTITLE=Lo Rwa Kaf - Tradition Maloya
DYEAR=2010
DGENRE=maloya
TTITLE0=20 Désanm'
TTITLE1=Kanal dé Sièz
TTITLE2=Ma Komer
TTITLE3=Sumundar Nangaladou
TTITLE4=Mésyé lo Gronwi
TTITLE5=Mwin la di mwin la dan
TTITLE6=Daï ta hil
TTITLE7=Mourinville
TTITLE8=Ker volaze
TTITLE9=Naï na alouza
TTITLE10=Rod Louval
EXTD=
EXTT0=
EXTT1=
EXTT2=
EXTT3=
EXTT4=
EXTT5=
EXTT6=
EXTT7=
EXTT8=
EXTT9=
EXTT10=
PLAYORDER=
